<svg xmlns="http://www.w3.org/2000/svg" width="600" height="400" viewBox="0 0 600 400"><rect width="100%" height="100%" fill="#DDDDDD"/><path fill="#999999" d="M159.16 180.84h5.38v38.32h-6.29v-24.75q0-1.48.16-3.21l-11.58 21.76q-.82 1.56-2.51 1.56h-1.01q-1.7 0-2.52-1.56l-11.71-21.84q.08.88.13 1.73.05.84.05 1.56v24.75h-6.28v-38.32h5.38q.48 0 .82.03.35.02.63.13t.5.34q.23.24.44.64l11.47 21.28q.45.85.84 1.75.38.9.75 1.85.37-.98.77-1.89.4-.92.85-1.76l11.31-21.23q.22-.4.45-.64.24-.23.52-.34.28-.11.62-.13.35-.03.83-.03ZM209.61 200q0 4.21-1.39 7.8-1.39 3.6-3.93 6.22-2.55 2.62-6.13 4.09-3.57 1.47-7.95 1.47-4.34 0-7.92-1.47t-6.13-4.09q-2.56-2.62-3.97-6.22-1.4-3.59-1.4-7.8t1.4-7.8q1.41-3.59 3.97-6.22 2.55-2.62 6.13-4.09 3.58-1.47 7.92-1.47 2.92 0 5.49.67 2.57.68 4.72 1.91 2.14 1.23 3.85 3 1.71 1.76 2.9 3.93 1.2 2.17 1.82 4.72.62 2.54.62 5.35Zm-7.29 0q0-3.15-.84-5.66-.85-2.5-2.42-4.25-1.56-1.75-3.8-2.68-2.24-.92-5.05-.92-2.81 0-5.04.92-2.24.93-3.82 2.68-1.58 1.75-2.43 4.25-.84 2.51-.84 5.66 0 3.15.84 5.66.85 2.5 2.43 4.24 1.58 1.73 3.82 2.66 2.23.93 5.04.93t5.05-.93q2.24-.93 3.8-2.66 1.57-1.74 2.42-4.24.84-2.51.84-5.66Zm40.66-19.16h5.75l-15.48 38.32h-6.44l-15.48-38.32h5.73q.93 0 1.51.45t.87 1.17l9.04 23.37q.45 1.14.86 2.5.41 1.37.78 2.85.32-1.48.69-2.85.37-1.36.82-2.5l8.99-23.37q.21-.61.83-1.12.62-.5 1.53-.5Zm16.88 0v38.32h-7.16v-38.32h7.16Zm32.72 5.67h-17.01v10.63h13.41v5.48h-13.41v10.84h17.01v5.7h-24.16v-38.32h24.16v5.67Zm26.34-5.67v38.32h-7.15v-38.32h7.15Zm44.74 0h5.38v38.32h-6.28v-24.75q0-1.48.15-3.21l-11.58 21.76q-.82 1.56-2.51 1.56h-1.01q-1.7 0-2.52-1.56l-11.71-21.84q.08.88.13 1.73.05.84.05 1.56v24.75h-6.28v-38.32h5.38q.48 0 .82.03.35.02.63.13t.5.34q.23.24.44.64l11.47 21.28q.45.85.84 1.75.38.9.75 1.85.37-.98.77-1.89.4-.92.85-1.76l11.31-21.23q.22-.4.46-.64.23-.23.51-.34.28-.11.62-.13.35-.03.83-.03Zm21.96 23.85h12.19l-4.66-12.75q-.34-.84-.71-2.01-.38-1.17-.75-2.52-.34 1.35-.71 2.53-.37 1.18-.72 2.06l-4.64 12.69Zm9.73-23.85 15.05 38.32h-5.51q-.93 0-1.51-.46-.58-.47-.87-1.16l-2.87-7.81h-15.87l-2.86 7.81q-.21.61-.82 1.12-.61.5-1.51.5h-5.57l15.08-38.32h7.26Zm37.9 19.11h12.72v15.5q-2.92 2.15-6.22 3.14-3.3.99-7.06.99-4.69 0-8.49-1.45-3.81-1.46-6.5-4.06-2.69-2.59-4.14-6.2-1.46-3.6-1.46-7.87 0-4.32 1.4-7.92 1.41-3.61 3.99-6.2 2.58-2.6 6.27-4.03 3.68-1.43 8.27-1.43 2.33 0 4.36.37 2.02.37 3.76 1.02 1.73.65 3.17 1.58 1.43.92 2.62 2.04l-2.04 3.23q-.48.77-1.25.94-.77.17-1.67-.39-.87-.5-1.75-1-.87-.51-1.94-.88-1.08-.37-2.42-.61-1.33-.23-3.08-.23-2.84 0-5.13.95t-3.91 2.73q-1.62 1.77-2.49 4.27-.87 2.49-.87 5.56 0 3.29.94 5.87t2.65 4.37q1.71 1.79 4.12 2.73t5.38.94q2.12 0 3.79-.45t3.26-1.22v-6.94h-4.83q-.69 0-1.07-.38-.38-.39-.38-.94v-4.03Zm43.77-13.44h-17.01v10.63h13.41v5.48h-13.41v10.84h17.01v5.7h-24.16v-38.32h24.16v5.67Z"/></svg>