<svg xmlns="http://www.w3.org/2000/svg" width="300" height="400" viewBox="0 0 300 400"><rect width="100%" height="100%" fill="#DDDDDD"/><path fill="#999999" d="M81.12 185.835h3.25v23.14h-3.79v-14.94q0-.9.1-1.94l-7 13.14q-.49.94-1.52.94h-.6q-1.03 0-1.52-.94l-7.08-13.19q.05.53.08 1.04.04.51.04.95v14.94h-3.8v-23.14h3.25q.29 0 .5.02.21.02.37.08.17.06.31.21.13.14.26.38l6.93 12.85q.27.51.5 1.06.24.54.46 1.12.22-.6.46-1.15.24-.55.52-1.06l6.83-12.82q.13-.24.27-.38.14-.15.31-.21.17-.06.38-.08.21-.02.49-.02Zm15.04 6.47q1.83 0 3.32.59 1.5.59 2.56 1.68 1.07 1.09 1.64 2.66.58 1.56.58 3.5 0 1.95-.58 3.52-.57 1.57-1.64 2.67-1.06 1.11-2.56 1.7-1.49.59-3.32.59-1.84 0-3.34-.59-1.5-.59-2.57-1.7-1.06-1.1-1.65-2.67-.58-1.57-.58-3.52 0-1.94.58-3.5.59-1.57 1.65-2.66 1.07-1.09 2.57-1.68 1.5-.59 3.34-.59Zm0 13.87q2.05 0 3.04-1.38.98-1.37.98-4.03 0-2.65-.98-4.05-.99-1.39-3.04-1.39-2.08 0-3.08 1.4t-1 4.04q0 2.64 1 4.03 1 1.38 3.08 1.38Zm22.8-13.62h3.12l-6.51 16.42h-3.58l-6.51-16.42h3.26q.45 0 .74.21.3.21.4.53l3.16 8.77q.26.77.45 1.5.19.74.34 1.47.16-.73.35-1.47.19-.73.46-1.5l3.24-8.77q.11-.32.4-.53.28-.21.68-.21Zm5.35 0h3.97v16.42h-3.97v-16.42Zm4.51-4.78q0 .51-.21.96-.21.45-.55.78-.34.34-.81.54-.46.2-.99.2-.51 0-.97-.2-.45-.2-.79-.54-.34-.33-.54-.78t-.2-.96q0-.53.2-.99.2-.47.54-.8.34-.34.79-.54.46-.2.97-.2.53 0 .99.2.47.2.81.54.34.33.55.8.21.46.21.99Zm6.61 11.1h7.45q0-.76-.21-1.44-.22-.68-.65-1.2-.43-.51-1.1-.8-.66-.3-1.54-.3-1.71 0-2.7.98-.98.97-1.25 2.76Zm10.08 2.39h-10.16q.09 1.26.45 2.18.35.92.92 1.52.58.6 1.37.9.79.29 1.75.29t1.66-.22q.7-.22 1.22-.5.52-.27.91-.49.39-.23.76-.23.49 0 .73.37l1.14 1.44q-.66.77-1.47 1.29-.82.52-1.71.83-.88.31-1.8.44t-1.79.13q-1.71 0-3.18-.57-1.47-.57-2.56-1.68-1.09-1.11-1.71-2.75-.63-1.64-.63-3.8 0-1.68.55-3.16.54-1.48 1.56-2.58 1.01-1.09 2.48-1.73 1.46-.64 3.3-.64 1.55 0 2.86.49 1.32.5 2.26 1.45.94.95 1.48 2.34.54 1.38.54 3.16 0 .89-.2 1.21-.19.31-.73.31Zm16.61-15.43v23.14h-4.32v-23.14h4.32Zm8.49 23.14h-3.95v-16.42h2.42q.76 0 1 .72l.26 1.22q.43-.48.9-.88.48-.4 1.01-.69.54-.29 1.15-.45.62-.17 1.36-.17 1.55 0 2.55.84 1 .84 1.49 2.23.39-.82.96-1.4.58-.58 1.27-.95.69-.37 1.46-.55.78-.17 1.56-.17 1.36 0 2.42.41 1.05.42 1.77 1.22t1.1 1.95q.38 1.15.38 2.64v10.45h-3.96v-10.45q0-1.57-.68-2.36-.69-.79-2.02-.79-.61 0-1.13.21-.52.21-.91.6t-.62.98q-.22.59-.22 1.36v10.45h-3.97v-10.45q0-1.65-.66-2.4-.67-.75-1.95-.75-.86 0-1.6.42-.75.43-1.39 1.16v12.02Zm31.52-4.24v-2.77q-1.71.08-2.88.3-1.17.21-1.87.55-.7.34-1.01.78-.3.45-.3.98 0 1.04.61 1.49.62.45 1.61.45 1.22 0 2.11-.44.88-.44 1.73-1.34Zm-8.35-8.62-.7-1.27q2.83-2.59 6.81-2.59 1.44 0 2.58.47 1.13.47 1.92 1.31.78.84 1.19 2.01.41 1.17.41 2.56v10.37h-1.79q-.56 0-.87-.17-.3-.17-.48-.68l-.35-1.18q-.62.56-1.22.98-.59.43-1.23.71-.64.29-1.37.44-.72.16-1.6.16-1.04 0-1.92-.28-.88-.28-1.52-.84-.64-.56-1-1.4-.35-.83-.35-1.93 0-.63.21-1.24.21-.62.68-1.18.47-.56 1.22-1.05.76-.5 1.85-.87 1.1-.37 2.55-.6 1.46-.23 3.33-.28v-.96q0-1.65-.7-2.44-.71-.79-2.03-.79-.96 0-1.6.22-.63.23-1.11.51-.48.28-.87.5-.39.23-.87.23-.42 0-.71-.22-.28-.22-.46-.5Zm21.92 4.25q.74 0 1.28-.2t.9-.55q.36-.35.55-.85.18-.49.18-1.09 0-1.21-.73-1.92-.72-.72-2.18-.72-1.46 0-2.18.72-.73.71-.73 1.92 0 .58.18 1.08.19.49.55.85.36.36.91.56.55.2 1.27.2Zm4.46 9.35q0-.48-.28-.79-.29-.3-.79-.47-.49-.17-1.16-.25-.66-.08-1.41-.12-.74-.04-1.53-.07-.79-.03-1.55-.13-.65.37-1.06.87-.41.49-.41 1.15 0 .43.22.81.21.37.69.64.47.28 1.22.43.75.15 1.84.15 1.1 0 1.9-.17.8-.17 1.32-.46.52-.3.76-.71.24-.4.24-.88Zm-.78-16.6h4.72v1.48q0 .7-.85.86l-1.47.27q.34.85.34 1.86 0 1.21-.49 2.2-.49.98-1.35 1.67-.87.69-2.04 1.06-1.18.38-2.54.38-.48 0-.93-.05-.45-.05-.88-.13-.77.47-.77 1.04 0 .5.46.73.46.23 1.21.33t1.71.12q.96.02 1.97.1t1.97.28q.96.2 1.71.64.75.43 1.21 1.17.45.75.45 1.91 0 1.09-.53 2.12-.54 1.02-1.56 1.82-1.01.8-2.49 1.29-1.48.49-3.37.49-1.86 0-3.23-.36-1.38-.36-2.29-.96-.91-.6-1.36-1.39-.45-.78-.45-1.63 0-1.15.7-1.93.69-.77 1.91-1.24-.66-.33-1.04-.89t-.38-1.48q0-.36.13-.76.14-.39.4-.77.27-.39.67-.73.4-.34.94-.62-1.25-.67-1.96-1.79t-.71-2.62q0-1.22.49-2.2.48-.99 1.36-1.68.87-.7 2.06-1.07 1.19-.36 2.6-.36 1.06 0 1.98.21.93.22 1.7.63Zm10.34 5.76h7.45q0-.76-.21-1.44-.22-.68-.65-1.2-.43-.51-1.1-.8-.66-.3-1.54-.3-1.71 0-2.7.98-.98.97-1.25 2.76Zm10.08 2.39h-10.16q.09 1.26.44 2.18.36.92.93 1.52.58.6 1.37.9.79.29 1.75.29t1.66-.22q.69-.22 1.21-.5.52-.27.92-.49.39-.23.76-.23.49 0 .73.37l1.14 1.44q-.66.77-1.47 1.29-.82.52-1.71.83-.89.31-1.81.44t-1.78.13q-1.71 0-3.18-.57-1.48-.57-2.56-1.68-1.09-1.11-1.72-2.75-.62-1.64-.62-3.8 0-1.68.54-3.16.55-1.48 1.56-2.58 1.02-1.09 2.48-1.73 1.47-.64 3.31-.64 1.55 0 2.86.49 1.31.5 2.26 1.45.94.95 1.48 2.34.53 1.38.53 3.16 0 .89-.19 1.21-.19.31-.73.31Z"/></svg>